<svg xmlns:xlink="http://www.w3.org/1999/xlink" width="40.71ex" height="9.176ex" style="font-size: 15px; vertical-align: -4.005ex;" viewBox="0 -2226.5 17527.9 3950.7" role="img" focusable="false" xmlns="http://www.w3.org/2000/svg">
<defs>
<path stroke-width="1" id="E1-MJMATHI-73" d="M131 289Q131 321 147 354T203 415T300 442Q362 442 390 415T419 355Q419 323 402 308T364 292Q351 292 340 300T328 326Q328 342 337 354T354 372T367 378Q368 378 368 379Q368 382 361 388T336 399T297 405Q249 405 227 379T204 326Q204 301 223 291T278 274T330 259Q396 230 396 163Q396 135 385 107T352 51T289 7T195 -10Q118 -10 86 19T53 87Q53 126 74 143T118 160Q133 160 146 151T160 120Q160 94 142 76T111 58Q109 57 108 57T107 55Q108 52 115 47T146 34T201 27Q237 27 263 38T301 66T318 97T323 122Q323 150 302 164T254 181T195 196T148 231Q131 256 131 289Z"></path>
<path stroke-width="1" id="E1-MJMATHI-69" d="M184 600Q184 624 203 642T247 661Q265 661 277 649T290 619Q290 596 270 577T226 557Q211 557 198 567T184 600ZM21 287Q21 295 30 318T54 369T98 420T158 442Q197 442 223 419T250 357Q250 340 236 301T196 196T154 83Q149 61 149 51Q149 26 166 26Q175 26 185 29T208 43T235 78T260 137Q263 149 265 151T282 153Q302 153 302 143Q302 135 293 112T268 61T223 11T161 -11Q129 -11 102 10T74 74Q74 91 79 106T122 220Q160 321 166 341T173 380Q173 404 156 404H154Q124 404 99 371T61 287Q60 286 59 284T58 281T56 279T53 278T49 278T41 278H27Q21 284 21 287Z"></path>
<path stroke-width="1" id="E1-MJMAIN-3D" d="M56 347Q56 360 70 367H707Q722 359 722 347Q722 336 708 328L390 327H72Q56 332 56 347ZM56 153Q56 168 72 173H708Q722 163 722 153Q722 140 707 133H70Q56 140 56 153Z"></path>
<path stroke-width="1" id="E1-MJMATHI-3B1" d="M34 156Q34 270 120 356T309 442Q379 442 421 402T478 304Q484 275 485 237V208Q534 282 560 374Q564 388 566 390T582 393Q603 393 603 385Q603 376 594 346T558 261T497 161L486 147L487 123Q489 67 495 47T514 26Q528 28 540 37T557 60Q559 67 562 68T577 70Q597 70 597 62Q597 56 591 43Q579 19 556 5T512 -10H505Q438 -10 414 62L411 69L400 61Q390 53 370 41T325 18T267 -2T203 -11Q124 -11 79 39T34 156ZM208 26Q257 26 306 47T379 90L403 112Q401 255 396 290Q382 405 304 405Q235 405 183 332Q156 292 139 224T121 120Q121 71 146 49T208 26Z"></path>
<path stroke-width="1" id="E1-MJMAIN-28" d="M94 250Q94 319 104 381T127 488T164 576T202 643T244 695T277 729T302 750H315H319Q333 750 333 741Q333 738 316 720T275 667T226 581T184 443T167 250T184 58T225 -81T274 -167T316 -220T333 -241Q333 -250 318 -250H315H302L274 -226Q180 -141 137 -14T94 250Z"></path>
<path stroke-width="1" id="E1-MJMATHI-78" d="M52 289Q59 331 106 386T222 442Q257 442 286 424T329 379Q371 442 430 442Q467 442 494 420T522 361Q522 332 508 314T481 292T458 288Q439 288 427 299T415 328Q415 374 465 391Q454 404 425 404Q412 404 406 402Q368 386 350 336Q290 115 290 78Q290 50 306 38T341 26Q378 26 414 59T463 140Q466 150 469 151T485 153H489Q504 153 504 145Q504 144 502 134Q486 77 440 33T333 -11Q263 -11 227 52Q186 -10 133 -10H127Q78 -10 57 16T35 71Q35 103 54 123T99 143Q142 143 142 101Q142 81 130 66T107 46T94 41L91 40Q91 39 97 36T113 29T132 26Q168 26 194 71Q203 87 217 139T245 247T261 313Q266 340 266 352Q266 380 251 392T217 404Q177 404 142 372T93 290Q91 281 88 280T72 278H58Q52 284 52 289Z"></path>
<path stroke-width="1" id="E1-MJMAIN-2212" d="M84 237T84 250T98 270H679Q694 262 694 250T679 230H98Q84 237 84 250Z"></path>
<path stroke-width="1" id="E1-MJMATHI-70" d="M23 287Q24 290 25 295T30 317T40 348T55 381T75 411T101 433T134 442Q209 442 230 378L240 387Q302 442 358 442Q423 442 460 395T497 281Q497 173 421 82T249 -10Q227 -10 210 -4Q199 1 187 11T168 28L161 36Q160 35 139 -51T118 -138Q118 -144 126 -145T163 -148H188Q194 -155 194 -157T191 -175Q188 -187 185 -190T172 -194Q170 -194 161 -194T127 -193T65 -192Q-5 -192 -24 -194H-32Q-39 -187 -39 -183Q-37 -156 -26 -148H-6Q28 -147 33 -136Q36 -130 94 103T155 350Q156 355 156 364Q156 405 131 405Q109 405 94 377T71 316T59 280Q57 278 43 278H29Q23 284 23 287ZM178 102Q200 26 252 26Q282 26 310 49T356 107Q374 141 392 215T411 325V331Q411 405 350 405Q339 405 328 402T306 393T286 380T269 365T254 350T243 336T235 326L232 322Q232 321 229 308T218 264T204 212Q178 106 178 102Z"></path>
<path stroke-width="1" id="E1-MJMATHI-6B" d="M121 647Q121 657 125 670T137 683Q138 683 209 688T282 694Q294 694 294 686Q294 679 244 477Q194 279 194 272Q213 282 223 291Q247 309 292 354T362 415Q402 442 438 442Q468 442 485 423T503 369Q503 344 496 327T477 302T456 291T438 288Q418 288 406 299T394 328Q394 353 410 369T442 390L458 393Q446 405 434 405H430Q398 402 367 380T294 316T228 255Q230 254 243 252T267 246T293 238T320 224T342 206T359 180T365 147Q365 130 360 106T354 66Q354 26 381 26Q429 26 459 145Q461 153 479 153H483Q499 153 499 144Q499 139 496 130Q455 -11 378 -11Q333 -11 305 15T277 90Q277 108 280 121T283 145Q283 167 269 183T234 206T200 217T182 220H180Q168 178 159 139T145 81T136 44T129 20T122 7T111 -2Q98 -11 83 -11Q66 -11 57 -1T48 16Q48 26 85 176T158 471L195 616Q196 629 188 632T149 637H144Q134 637 131 637T124 640T121 647Z"></path>
<path stroke-width="1" id="E1-MJMAIN-29" d="M60 749L64 750Q69 750 74 750H86L114 726Q208 641 251 514T294 250Q294 182 284 119T261 12T224 -76T186 -143T145 -194T113 -227T90 -246Q87 -249 86 -250H74Q66 -250 63 -250T58 -247T55 -238Q56 -237 66 -225Q221 -64 221 250T66 725Q56 737 55 738Q55 746 60 749Z"></path>
<path stroke-width="1" id="E1-MJMAIN-2B" d="M56 237T56 250T70 270H369V420L370 570Q380 583 389 583Q402 583 409 568V270H707Q722 262 722 250T707 230H409V-68Q401 -82 391 -82H389H387Q375 -82 369 -68V230H70Q56 237 56 250Z"></path>
<path stroke-width="1" id="E1-MJMAIN-31" d="M213 578L200 573Q186 568 160 563T102 556H83V602H102Q149 604 189 617T245 641T273 663Q275 666 285 666Q294 666 302 660V361L303 61Q310 54 315 52T339 48T401 46H427V0H416Q395 3 257 3Q121 3 100 0H88V46H114Q136 46 152 46T177 47T193 50T201 52T207 57T213 61V578Z"></path>
<path stroke-width="1" id="E1-MJMATHI-74" d="M26 385Q19 392 19 395Q19 399 22 411T27 425Q29 430 36 430T87 431H140L159 511Q162 522 166 540T173 566T179 586T187 603T197 615T211 624T229 626Q247 625 254 615T261 596Q261 589 252 549T232 470L222 433Q222 431 272 431H323Q330 424 330 420Q330 398 317 385H210L174 240Q135 80 135 68Q135 26 162 26Q197 26 230 60T283 144Q285 150 288 151T303 153H307Q322 153 322 145Q322 142 319 133Q314 117 301 95T267 48T216 6T155 -11Q125 -11 98 4T59 56Q57 64 57 83V101L92 241Q127 382 128 383Q128 385 77 385H26Z"></path>
<path stroke-width="1" id="E1-MJMATHI-3B2" d="M29 -194Q23 -188 23 -186Q23 -183 102 134T186 465Q208 533 243 584T309 658Q365 705 429 705H431Q493 705 533 667T573 570Q573 465 469 396L482 383Q533 332 533 252Q533 139 448 65T257 -10Q227 -10 203 -2T165 17T143 40T131 59T126 65L62 -188Q60 -194 42 -194H29ZM353 431Q392 431 427 419L432 422Q436 426 439 429T449 439T461 453T472 471T484 495T493 524T501 560Q503 569 503 593Q503 611 502 616Q487 667 426 667Q384 667 347 643T286 582T247 514T224 455Q219 439 186 308T152 168Q151 163 151 147Q151 99 173 68Q204 26 260 26Q302 26 349 51T425 137Q441 171 449 214T457 279Q457 337 422 372Q380 358 347 358H337Q258 358 258 389Q258 396 261 403Q275 431 353 431Z"></path>
<path stroke-width="1" id="E1-MJMATHI-3B3" d="M31 249Q11 249 11 258Q11 275 26 304T66 365T129 418T206 441Q233 441 239 440Q287 429 318 386T371 255Q385 195 385 170Q385 166 386 166L398 193Q418 244 443 300T486 391T508 430Q510 431 524 431H537Q543 425 543 422Q543 418 522 378T463 251T391 71Q385 55 378 6T357 -100Q341 -165 330 -190T303 -216Q286 -216 286 -188Q286 -138 340 32L346 51L347 69Q348 79 348 100Q348 257 291 317Q251 355 196 355Q148 355 108 329T51 260Q49 251 47 251Q45 249 31 249Z"></path>
</defs>
<g stroke="currentColor" fill="currentColor" stroke-width="0" transform="matrix(1 0 0 -1 0 0)">
<g transform="translate(167,0)">
<g transform="translate(-11,0)">
<g transform="translate(34,1326)">
 <use xlink:href="#E1-MJMATHI-73" x="0" y="0"></use>
 <use transform="scale(0.707)" xlink:href="#E1-MJMATHI-69" x="663" y="-213"></use>
</g>
<g transform="translate(142,-25)">
 <use xlink:href="#E1-MJMATHI-74" x="0" y="0"></use>
 <use transform="scale(0.707)" xlink:href="#E1-MJMATHI-69" x="511" y="-213"></use>
</g>
<g transform="translate(0,-1376)">
 <use xlink:href="#E1-MJMATHI-70" x="0" y="0"></use>
 <use transform="scale(0.707)" xlink:href="#E1-MJMATHI-69" x="712" y="-213"></use>
</g>
</g>
<g transform="translate(837,0)">
<g transform="translate(0,1326)">
 <use xlink:href="#E1-MJMAIN-3D" x="277" y="0"></use>
 <use xlink:href="#E1-MJMATHI-3B1" x="1334" y="0"></use>
 <use xlink:href="#E1-MJMAIN-28" x="1974" y="0"></use>
<g transform="translate(2364,0)">
 <use xlink:href="#E1-MJMATHI-78" x="0" y="0"></use>
 <use transform="scale(0.707)" xlink:href="#E1-MJMATHI-69" x="809" y="-213"></use>
</g>
 <use xlink:href="#E1-MJMAIN-2212" x="3503" y="0"></use>
<g transform="translate(4503,0)">
 <use xlink:href="#E1-MJMATHI-70" x="0" y="0"></use>
<g transform="translate(503,-150)">
 <use transform="scale(0.707)" xlink:href="#E1-MJMATHI-69" x="0" y="0"></use>
 <use transform="scale(0.707)" xlink:href="#E1-MJMAIN-2212" x="345" y="0"></use>
 <use transform="scale(0.707)" xlink:href="#E1-MJMATHI-6B" x="1124" y="0"></use>
</g>
</g>
 <use xlink:href="#E1-MJMAIN-29" x="6270" y="0"></use>
 <use xlink:href="#E1-MJMAIN-2B" x="6882" y="0"></use>
 <use xlink:href="#E1-MJMAIN-28" x="7883" y="0"></use>
 <use xlink:href="#E1-MJMAIN-31" x="8272" y="0"></use>
 <use xlink:href="#E1-MJMAIN-2212" x="8995" y="0"></use>
 <use xlink:href="#E1-MJMATHI-3B1" x="9996" y="0"></use>
 <use xlink:href="#E1-MJMAIN-29" x="10636" y="0"></use>
 <use xlink:href="#E1-MJMAIN-28" x="11026" y="0"></use>
<g transform="translate(11415,0)">
 <use xlink:href="#E1-MJMATHI-73" x="0" y="0"></use>
<g transform="translate(469,-150)">
 <use transform="scale(0.707)" xlink:href="#E1-MJMATHI-69" x="0" y="0"></use>
 <use transform="scale(0.707)" xlink:href="#E1-MJMAIN-2212" x="345" y="0"></use>
 <use transform="scale(0.707)" xlink:href="#E1-MJMAIN-31" x="1124" y="0"></use>
</g>
</g>
 <use xlink:href="#E1-MJMAIN-2B" x="13356" y="0"></use>
<g transform="translate(14356,0)">
 <use xlink:href="#E1-MJMATHI-74" x="0" y="0"></use>
<g transform="translate(361,-150)">
 <use transform="scale(0.707)" xlink:href="#E1-MJMATHI-69" x="0" y="0"></use>
 <use transform="scale(0.707)" xlink:href="#E1-MJMAIN-2212" x="345" y="0"></use>
 <use transform="scale(0.707)" xlink:href="#E1-MJMAIN-31" x="1124" y="0"></use>
</g>
</g>
 <use xlink:href="#E1-MJMAIN-29" x="15967" y="0"></use>
</g>
<g transform="translate(0,-25)">
 <use xlink:href="#E1-MJMAIN-3D" x="277" y="0"></use>
 <use xlink:href="#E1-MJMATHI-3B2" x="1334" y="0"></use>
 <use xlink:href="#E1-MJMAIN-28" x="1907" y="0"></use>
<g transform="translate(2297,0)">
 <use xlink:href="#E1-MJMATHI-73" x="0" y="0"></use>
 <use transform="scale(0.707)" xlink:href="#E1-MJMATHI-69" x="663" y="-213"></use>
</g>
 <use xlink:href="#E1-MJMAIN-2212" x="3333" y="0"></use>
<g transform="translate(4333,0)">
 <use xlink:href="#E1-MJMATHI-73" x="0" y="0"></use>
<g transform="translate(469,-150)">
 <use transform="scale(0.707)" xlink:href="#E1-MJMATHI-69" x="0" y="0"></use>
 <use transform="scale(0.707)" xlink:href="#E1-MJMAIN-2212" x="345" y="0"></use>
 <use transform="scale(0.707)" xlink:href="#E1-MJMAIN-31" x="1124" y="0"></use>
</g>
</g>
 <use xlink:href="#E1-MJMAIN-29" x="6052" y="0"></use>
 <use xlink:href="#E1-MJMAIN-2B" x="6663" y="0"></use>
 <use xlink:href="#E1-MJMAIN-28" x="7664" y="0"></use>
 <use xlink:href="#E1-MJMAIN-31" x="8053" y="0"></use>
 <use xlink:href="#E1-MJMAIN-2212" x="8776" y="0"></use>
 <use xlink:href="#E1-MJMATHI-3B2" x="9777" y="0"></use>
 <use xlink:href="#E1-MJMAIN-29" x="10350" y="0"></use>
<g transform="translate(10740,0)">
 <use xlink:href="#E1-MJMATHI-74" x="0" y="0"></use>
<g transform="translate(361,-150)">
 <use transform="scale(0.707)" xlink:href="#E1-MJMATHI-69" x="0" y="0"></use>
 <use transform="scale(0.707)" xlink:href="#E1-MJMAIN-2212" x="345" y="0"></use>
 <use transform="scale(0.707)" xlink:href="#E1-MJMAIN-31" x="1124" y="0"></use>
</g>
</g>
</g>
<g transform="translate(0,-1376)">
 <use xlink:href="#E1-MJMAIN-3D" x="277" y="0"></use>
 <use xlink:href="#E1-MJMATHI-3B3" x="1334" y="0"></use>
 <use xlink:href="#E1-MJMAIN-28" x="1877" y="0"></use>
<g transform="translate(2267,0)">
 <use xlink:href="#E1-MJMATHI-78" x="0" y="0"></use>
 <use transform="scale(0.707)" xlink:href="#E1-MJMATHI-69" x="809" y="-213"></use>
</g>
 <use xlink:href="#E1-MJMAIN-2212" x="3406" y="0"></use>
<g transform="translate(4406,0)">
 <use xlink:href="#E1-MJMATHI-73" x="0" y="0"></use>
 <use transform="scale(0.707)" xlink:href="#E1-MJMATHI-69" x="663" y="-213"></use>
</g>
 <use xlink:href="#E1-MJMAIN-29" x="5220" y="0"></use>
 <use xlink:href="#E1-MJMAIN-2B" x="5832" y="0"></use>
 <use xlink:href="#E1-MJMAIN-28" x="6833" y="0"></use>
 <use xlink:href="#E1-MJMAIN-31" x="7222" y="0"></use>
 <use xlink:href="#E1-MJMAIN-2212" x="7945" y="0"></use>
 <use xlink:href="#E1-MJMATHI-3B3" x="8945" y="0"></use>
 <use xlink:href="#E1-MJMAIN-29" x="9489" y="0"></use>
<g transform="translate(9878,0)">
 <use xlink:href="#E1-MJMATHI-70" x="0" y="0"></use>
<g transform="translate(503,-150)">
 <use transform="scale(0.707)" xlink:href="#E1-MJMATHI-69" x="0" y="0"></use>
 <use transform="scale(0.707)" xlink:href="#E1-MJMAIN-2212" x="345" y="0"></use>
 <use transform="scale(0.707)" xlink:href="#E1-MJMATHI-6B" x="1124" y="0"></use>
</g>
</g>
</g>
</g>
</g>
</g>
</svg>