<svg xmlns:xlink="http://www.w3.org/1999/xlink" width="75ex" height="21.843ex" style="font-size: 15px; vertical-align: -10.838ex; max-width: 450;" viewBox="0 -4738.1 32291.5 9404.4" role="img" focusable="false" xmlns="http://www.w3.org/2000/svg">
<defs>
<path stroke-width="1" id="E1-MJMATHI-41" d="M208 74Q208 50 254 46Q272 46 272 35Q272 34 270 22Q267 8 264 4T251 0Q249 0 239 0T205 1T141 2Q70 2 50 0H42Q35 7 35 11Q37 38 48 46H62Q132 49 164 96Q170 102 345 401T523 704Q530 716 547 716H555H572Q578 707 578 706L606 383Q634 60 636 57Q641 46 701 46Q726 46 726 36Q726 34 723 22Q720 7 718 4T704 0Q701 0 690 0T651 1T578 2Q484 2 455 0H443Q437 6 437 9T439 27Q443 40 445 43L449 46H469Q523 49 533 63L521 213H283L249 155Q208 86 208 74ZM516 260Q516 271 504 416T490 562L463 519Q447 492 400 412L310 260L413 259Q516 259 516 260Z"></path>
<path stroke-width="1" id="E1-MJMAINB-76" d="M401 444Q413 441 495 441Q568 441 574 444H580V382H510L409 156Q348 18 339 6Q331 -4 320 -4Q318 -4 313 -4T303 -3H288Q273 -3 264 12T221 102Q206 135 197 156L96 382H26V444H34Q49 441 145 441Q252 441 270 444H279V382H231L284 264Q335 149 338 149Q338 150 389 264T442 381Q442 382 418 382H394V444H401Z"></path>
<path stroke-width="1" id="E1-MJMAIN-3D" d="M56 347Q56 360 70 367H707Q722 359 722 347Q722 336 708 328L390 327H72Q56 332 56 347ZM56 153Q56 168 72 173H708Q722 163 722 153Q722 140 707 133H70Q56 140 56 153Z"></path>
<path stroke-width="1" id="E1-MJMATHI-3BB" d="M166 673Q166 685 183 694H202Q292 691 316 644Q322 629 373 486T474 207T524 67Q531 47 537 34T546 15T551 6T555 2T556 -2T550 -11H482Q457 3 450 18T399 152L354 277L340 262Q327 246 293 207T236 141Q211 112 174 69Q123 9 111 -1T83 -12Q47 -12 47 20Q47 37 61 52T199 187Q229 216 266 252T321 306L338 322Q338 323 288 462T234 612Q214 657 183 657Q166 657 166 673Z"></path>
<path stroke-width="1" id="E1-MJMAIN-7C" d="M139 -249H137Q125 -249 119 -235V251L120 737Q130 750 139 750Q152 750 159 735V-235Q151 -249 141 -249H139Z"></path>
<path stroke-width="1" id="E1-MJMAIN-32" d="M109 429Q82 429 66 447T50 491Q50 562 103 614T235 666Q326 666 387 610T449 465Q449 422 429 383T381 315T301 241Q265 210 201 149L142 93L218 92Q375 92 385 97Q392 99 409 186V189H449V186Q448 183 436 95T421 3V0H50V19V31Q50 38 56 46T86 81Q115 113 136 137Q145 147 170 174T204 211T233 244T261 278T284 308T305 340T320 369T333 401T340 431T343 464Q343 527 309 573T212 619Q179 619 154 602T119 569T109 550Q109 549 114 549Q132 549 151 535T170 489Q170 464 154 447T109 429Z"></path>
<path stroke-width="1" id="E1-MJMAIN-28" d="M94 250Q94 319 104 381T127 488T164 576T202 643T244 695T277 729T302 750H315H319Q333 750 333 741Q333 738 316 720T275 667T226 581T184 443T167 250T184 58T225 -81T274 -167T316 -220T333 -241Q333 -250 318 -250H315H302L274 -226Q180 -141 137 -14T94 250Z"></path>
<path stroke-width="1" id="E1-MJMAIN-29" d="M60 749L64 750Q69 750 74 750H86L114 726Q208 641 251 514T294 250Q294 182 284 119T261 12T224 -76T186 -143T145 -194T113 -227T90 -246Q87 -249 86 -250H74Q66 -250 63 -250T58 -247T55 -238Q56 -237 66 -225Q221 -64 221 250T66 725Q56 737 55 738Q55 746 60 749Z"></path>
<path stroke-width="1" id="E1-MJMAIN-54" d="M36 443Q37 448 46 558T55 671V677H666V671Q667 666 676 556T685 443V437H645V443Q645 445 642 478T631 544T610 593Q593 614 555 625Q534 630 478 630H451H443Q417 630 414 618Q413 616 413 339V63Q420 53 439 50T528 46H558V0H545L361 3Q186 1 177 0H164V46H194Q264 46 283 49T309 63V339V550Q309 620 304 625T271 630H244H224Q154 630 119 601Q101 585 93 554T81 486T76 443V437H36V443Z"></path>
</defs>
<g stroke="currentColor" fill="currentColor" stroke-width="0" transform="matrix(1 0 0 -1 0 0)">
<g transform="translate(11411,0)">
<g transform="translate(167,0)">
<g transform="translate(-11,0)">
<g transform="translate(0,1927)">
 <use xlink:href="#E1-MJMAIN-7C" x="0" y="0"></use>
 <use xlink:href="#E1-MJMAIN-7C" x="278" y="0"></use>
 <use xlink:href="#E1-MJMATHI-41" x="557" y="0"></use>
 <use xlink:href="#E1-MJMAINB-76" x="1307" y="0"></use>
 <use xlink:href="#E1-MJMAIN-7C" x="1915" y="0"></use>
<g transform="translate(2193,0)">
 <use xlink:href="#E1-MJMAIN-7C" x="0" y="0"></use>
 <use transform="scale(0.707)" xlink:href="#E1-MJMAIN-32" x="393" y="675"></use>
</g>
</g>
</g>
<g transform="translate(2915,0)">
<g transform="translate(0,3807)">
 <use xlink:href="#E1-MJMATHI-41" x="0" y="0"></use>
 <use xlink:href="#E1-MJMAINB-76" x="750" y="0"></use>
 <use xlink:href="#E1-MJMAIN-3D" x="1635" y="0"></use>
 <use xlink:href="#E1-MJMATHI-3BB" x="2692" y="0"></use>
 <use xlink:href="#E1-MJMAINB-76" x="3275" y="0"></use>
</g>
<g transform="translate(0,1927)">
 <use xlink:href="#E1-MJMAIN-3D" x="277" y="0"></use>
 <use xlink:href="#E1-MJMAIN-28" x="1334" y="0"></use>
 <use xlink:href="#E1-MJMATHI-41" x="1723" y="0"></use>
 <use xlink:href="#E1-MJMAINB-76" x="2474" y="0"></use>
<g transform="translate(3081,0)">
 <use xlink:href="#E1-MJMAIN-29" x="0" y="0"></use>
 <use transform="scale(0.707)" xlink:href="#E1-MJMAIN-54" x="550" y="583"></use>
</g>
 <use xlink:href="#E1-MJMAIN-28" x="4081" y="0"></use>
 <use xlink:href="#E1-MJMATHI-41" x="4471" y="0"></use>
 <use xlink:href="#E1-MJMAINB-76" x="5221" y="0"></use>
 <use xlink:href="#E1-MJMAIN-29" x="5829" y="0"></use>
</g>
<g transform="translate(0,484)">
 <use xlink:href="#E1-MJMAIN-3D" x="277" y="0"></use>
<g transform="translate(1334,0)">
 <use xlink:href="#E1-MJMAINB-76" x="0" y="0"></use>
 <use transform="scale(0.707)" xlink:href="#E1-MJMAIN-54" x="859" y="583"></use>
</g>
<g transform="translate(2552,0)">
 <use xlink:href="#E1-MJMATHI-41" x="0" y="0"></use>
 <use transform="scale(0.707)" xlink:href="#E1-MJMAIN-54" x="1061" y="583"></use>
</g>
 <use xlink:href="#E1-MJMATHI-41" x="3913" y="0"></use>
 <use xlink:href="#E1-MJMAINB-76" x="4664" y="0"></use>
</g>
<g transform="translate(0,-909)">
 <use xlink:href="#E1-MJMAIN-3D" x="277" y="0"></use>
<g transform="translate(1334,0)">
 <use xlink:href="#E1-MJMAINB-76" x="0" y="0"></use>
 <use transform="scale(0.707)" xlink:href="#E1-MJMAIN-54" x="859" y="583"></use>
</g>
 <use xlink:href="#E1-MJMAINB-76" x="2552" y="0"></use>
</g>
<g transform="translate(0,-2358)">
 <use xlink:href="#E1-MJMAIN-3D" x="277" y="0"></use>
 <use xlink:href="#E1-MJMAIN-7C" x="1334" y="0"></use>
 <use xlink:href="#E1-MJMAIN-7C" x="1612" y="0"></use>
 <use xlink:href="#E1-MJMAINB-76" x="1891" y="0"></use>
 <use xlink:href="#E1-MJMAIN-7C" x="2498" y="0"></use>
<g transform="translate(2777,0)">
 <use xlink:href="#E1-MJMAIN-7C" x="0" y="0"></use>
 <use transform="scale(0.707)" xlink:href="#E1-MJMAIN-32" x="393" y="675"></use>
</g>
</g>
<g transform="translate(0,-3858)">
 <use xlink:href="#E1-MJMAIN-3D" x="277" y="0"></use>
 <use xlink:href="#E1-MJMAIN-7C" x="1334" y="0"></use>
 <use xlink:href="#E1-MJMATHI-3BB" x="1612" y="0"></use>
<g transform="translate(2196,0)">
 <use xlink:href="#E1-MJMAIN-7C" x="0" y="0"></use>
 <use transform="scale(0.707)" xlink:href="#E1-MJMAIN-32" x="393" y="675"></use>
</g>
 <use xlink:href="#E1-MJMAIN-7C" x="2928" y="0"></use>
 <use xlink:href="#E1-MJMAIN-7C" x="3206" y="0"></use>
 <use xlink:href="#E1-MJMAINB-76" x="3485" y="0"></use>
 <use xlink:href="#E1-MJMAIN-7C" x="4092" y="0"></use>
<g transform="translate(4371,0)">
 <use xlink:href="#E1-MJMAIN-7C" x="0" y="0"></use>
 <use transform="scale(0.707)" xlink:href="#E1-MJMAIN-32" x="393" y="675"></use>
</g>
</g>
</g>
</g>
</g>
</g>
</svg>